<?xml version="1.0" encoding="UTF-8"?>
<svg width="80px" height="80px" viewBox="0 0 80 80" version="1.1" xmlns="http://www.w3.org/2000/svg" xmlns:xlink="http://www.w3.org/1999/xlink">
    <title>ser-icon-7</title>
    <g id="页面-1" stroke="none" stroke-width="1" fill="none" fill-rule="evenodd">
        <g id="首页-w4b" transform="translate(-1008, -3852)">
            <g id="sec5" transform="translate(0, 3226)">
                <g id="编组-17" transform="translate(972, 584)">
                    <g id="ser-icon-7" transform="translate(36, 42)">
                        <rect id="矩形" x="0" y="0" width="80" height="80"></rect>
                        <g id="编组-12" transform="translate(1.6, 4)" stroke="#25262E" stroke-width="1.5">
                            <ellipse id="椭圆形-3" cx="54.6774698" cy="55.420052" rx="16.2563298" ry="15.8501992"></ellipse>
                            <path d="M57.206875,44.8663806 L57.206875,47.0269604 C59.0193591,47.1774849 60.2150289,47.6797348 61.1304276,48.1119835 L59.9461659,52.3204862 C59.6477765,52.162376 59.3809752,52.0443875 59.1605116,51.9463863 C58.4905805,51.6485864 57.3969569,51.1568045 55.7375343,51.1568045 C55.1722504,51.1568045 54.7680937,51.2379553 54.5032083,51.4015154 C54.2639413,51.9528485 54.4394814,52.0519002 54.6271237,52.1740993 C55.0937474,52.4779806 55.8319231,52.7666317 56.8897981,53.1124811 C58.572475,53.6720829 59.7362094,54.3332519 60.4933818,55.1338136 C61.3210103,56.0088687 61.7030358,57.0552641 61.7030358,58.3704782 C61.7030358,59.6822916 61.2004138,60.8988815 60.2297242,61.8435042 C59.4803413,62.5727633 58.4428144,63.1431512 57.1251853,63.445344 L57.1248229,66.0618944 L53.0580718,66.0618944 L53.0580718,63.720843 C51.1030543,63.5249473 49.3143978,62.9089575 48.5385441,62.3321908 L49.7119016,58.0226539 C50.6322996,58.6496783 52.4370632,59.4816969 54.4784377,59.4816969 C55.0752445,59.4816969 55.5789661,59.392063 55.9250117,59.1852458 C56.1004124,59.080416 56.229972,58.9388507 56.229972,58.7366325 C56.229972,58.5092377 56.0979714,58.3416585 55.8883063,58.1818999 C55.4884902,57.877252 54.8610258,57.6216604 53.9917626,57.3466815 C52.3836297,56.8405184 51.0580296,56.2128582 50.1642175,55.3641909 C49.3009941,54.5445675 48.8073172,53.5246975 48.8073172,52.2070121 C48.8073172,50.9136171 49.2939617,49.7685989 50.1988369,48.8768 C50.9215228,48.1645575 51.921916,47.6116903 53.1726177,47.2980765 L53.1726177,44.8663806 L57.206875,44.8663806 Z" id="路径" fill="#FFDA91"></path>
                            <path d="M40.6730909,63.5216791 L39.5283001,64.1640932 L31.3147462,68.6559898 L29.8112617,69.491291 C25.5569728,71.9475058 20.1253562,70.5654511 17.7305377,66.4175039 L11.9460448,56.3975515 C12.6108398,55.4316111 13,54.2612522 13,53 C13,49.6862915 10.3137085,47 7,47 C6.84187981,47 6.68518819,47.0061164 6.53014883,47.0181256 L1.13536379,37.6738194 C-1.25945461,33.5258723 0.259459206,28.1309269 4.51374805,25.6747121 L46.8764653,1.21658587 C51.1307541,-1.23962894 56.562488,0.142358176 58.9573064,4.29030533 L64.5492221,13.9761784 C63.5864034,15.0404982 63,16.4517682 63,18 C63,21.3137085 65.6862915,24 69,24 C69.4320691,24 69.8534714,23.95433 70.2596429,23.867554 L75.5862111,33.0924132 C77.9035749,37.106205 76.4832222,42.3774948 72.4075326,44.8936211 L68.536176,47.2019038" id="路径"></path>
                            <line x1="50.0272042" y1="40.2736736" x2="32.8209173" y2="11.2" id="路径-12" stroke-dasharray="6"></line>
                        </g>
                    </g>
                </g>
            </g>
        </g>
    </g>
</svg>