<?xml version="1.0" encoding="UTF-8"?>
<svg width="80px" height="80px" viewBox="0 0 80 80" version="1.1" xmlns="http://www.w3.org/2000/svg" xmlns:xlink="http://www.w3.org/1999/xlink">
    <title>ser-icon-8</title>
    <g id="页面-1" stroke="none" stroke-width="1" fill="none" fill-rule="evenodd">
        <g id="首页-w4b" transform="translate(-1364, -3852)">
            <g id="sec5" transform="translate(0, 3226)">
                <g id="编组-18" transform="translate(1328, 584)">
                    <g id="ser-icon-8" transform="translate(36, 42)">
                        <rect id="矩形" x="0" y="0" width="80" height="80"></rect>
                        <g id="联盟" transform="translate(0.8, 0.8)">
                            <rect id="矩形" fill="#000000" fill-rule="nonzero" opacity="0" x="6.4" y="14.4" width="64" height="49.6"></rect>
                            <path d="M43.2,2.30940108 L69.1481958,17.2905989 C71.6234044,18.7196613 73.1481958,21.3606774 73.1481958,24.2188022 L73.1481958,54.1811978 C73.1481958,57.0393226 71.6234044,59.6803387 69.1481958,61.1094011 L43.2,76.0905989 C40.7247914,77.5196613 37.6752086,77.5196613 35.2,76.0905989 L9.25180417,61.1094011 C6.77659556,59.6803387 5.25180417,57.0393226 5.25180417,54.1811978 L5.25180417,24.2188022 C5.25180417,21.3606774 6.77659556,18.7196613 9.25180417,17.2905989 L35.2,2.30940108 C37.6752086,0.880338717 40.7247914,0.880338717 43.2,2.30940108 Z" id="多边形" stroke="#25262E" stroke-width="1.5"></path>
                            <path d="M9.91991401,47.9272841 C10.7389941,47.6160971 11.8598709,47.6160971 13.2825444,47.9272841 C14.7052179,48.2384712 15.6921631,48.6995236 16.24338,49.3104413" id="路径" stroke="#25262E" stroke-width="1.5"></path>
                            <path d="M33.9708927,61.8717013 L36.8488572,63.2910936 C38.3696719,64.3012856 40.2573574,64.1124346 41.3339025,62.5933079 C41.8419649,61.8336969 42.0365258,60.9482947 41.8419649,60.065086 L41.8419649,60.001046 L41.9035727,60.001046 L42.1607864,60.2516747 C43.3065393,61.3877533 45.1484081,61.5830682 46.4735693,60.6900842 C47.5380592,59.9353822 48.0606167,58.6226179 47.8073756,57.339308 L47.8073756,57.2763647 L47.8700759,57.2763647 L48.1273371,57.5270411 C49.2655375,58.6631197 51.0436134,58.8508528 52.44012,57.9654029 C53.5166651,57.2058396 54.0938878,55.8831246 53.8366266,54.6146744 L53.8366266,54.5604096 L53.8982344,54.5604096 L54.1554956,54.8099893 C55.2320407,55.8842213 56.9474163,56.0708577 58.2196149,55.3199729 C58.9781511,54.8745517 59.5267163,54.1419779 59.7421555,53.2867171 C59.9575947,52.4314562 59.8218567,51.5251686 59.3654153,50.7713192 C59.2516119,50.5916347 59.1240361,50.4211242 58.983846,50.2613356 L56.9560614,47.7960569 C48.3077758,37.1246253 48.21719,28.6168402 41.7447104,27.9614024 M26.4383058,25.3681467 C22.9190314,24.7567572 13.4855356,23.4708803 9.6,24.0403076" id="形状" stroke="#25262E" stroke-width="1.5"></path>
                            <path d="M68.9583231,47.9912765 L65.2152104,47.9912765 C64.7071955,47.9912765 64.1386178,48.1790096 63.7560035,48.5012601 L59.8421783,51.5302683" id="形状" stroke="#25262E" stroke-width="1.5"></path>
                            <path d="M41.7928802,27.9614024 C38.4273001,27.5082778 33.7087527,27.7336714 29.5021745,30.6000715 C25.2955962,33.4664716 20.941637,29.3554863 22.4603666,28.2671349 C23.9790962,27.1787834 31.3184066,21.8101821 34.7700376,19.1653599 C38.2216687,16.5205376 41.9111253,15.3812666 45.342969,16.7040293 L62.6102506,23.2741638 C63.7258243,23.7000405 64.9102038,23.9152468 66.1037021,23.9089373 L68.9583231,23.9089373" id="路径" stroke="#25262E" stroke-width="1.5"></path>
                            <path d="M17.6644931,47.1677685 L15.4400576,49.8848203 C14.4888181,51.0827455 14.6131262,52.8525008 15.8226719,53.7997972 L15.8853722,53.7997972 L16.2042412,54.0493769 C17.0937779,54.747046 18.3659764,54.8088925 19.3172159,54.3011024 C19.3788237,54.2381591 19.4414765,54.3011024 19.5041768,54.3629489 L19.5041768,54.4888355 C19.3160759,55.4979308 19.6911852,56.5721628 20.5180691,57.2058873 L20.7753303,57.3935727 C21.663822,58.0902404 22.8031149,58.153136 23.8234197,57.7060956 C23.8872125,57.6442491 24.0115206,57.7060956 24.0115206,57.7690389 L24.0115206,57.8319822 C23.8872125,58.779231 24.3314821,59.7264797 25.0880657,60.3602042 L25.2750741,60.4860907 C26.1635658,61.1827108 27.3028587,61.3074529 28.3243035,60.7356227 C28.3870038,60.6737762 28.5112644,60.7356227 28.5112644,60.798566 L28.5112644,60.8615093 C28.638625,61.5649187 29.0224467,62.1954725 29.587857,62.6301679 L29.7121651,62.6942079 C30.9843636,63.6415044 32.7624395,63.4537712 33.713584,62.1842243 C33.7762843,62.0594344 33.9005924,61.9346446 33.9708927,61.8717013 L34.353507,61.1750813 C35.0549903,59.9771561 34.8604294,58.5209728 33.8454921,57.5726273 C33.0197007,56.8130163 31.8188,56.6264276 30.7347024,57.0647894 C30.6720021,57.0647894 30.6720021,57.0647894 30.6093018,57.0018461 L30.6093018,56.9389028 C30.6720021,55.4198239 29.4635489,54.0971089 27.9427342,53.9723191 C27.5529541,53.9734469 27.1658345,54.0368165 26.7958888,54.1600522 C26.3516667,54.2218987 26.4759748,53.8464325 26.4759748,53.8464325 C27.0455975,52.3902491 26.4132745,50.8169054 24.9551126,50.182132 C24.1706128,49.876673 23.2934503,49.9224849 22.5447612,50.3080185 C22.2258922,50.3709618 22.2875,50.0573421 22.2875,50.0573421 C23.1219364,48.8745806 22.6777143,47.1677685 21.3438605,46.4093019 C20.1002194,45.7103335 18.5340401,46.0335573 17.6644931,47.1677685 Z" id="路径" stroke="#25262E" stroke-width="1.5" fill="#FFDA91"></path>
                            <path d="M53.8431295,54.6665052 C53.8431295,54.6665052 46.9065355,45.9406623 46.9065355,45.9406623" id="路径-7" stroke="#25262E" stroke-width="1.5"></path>
                            <path d="M47.8073756,57.339308 C47.8073756,57.339308 40.8707817,48.613465 40.8707817,48.613465" id="路径-7备份-2" stroke="#25262E" stroke-width="1.5"></path>
                            <path d="M42.1607864,60.2516747 C42.1607864,60.2516747 35.2241925,51.5258317 35.2241925,51.5258317" id="路径-7备份-3" stroke="#25262E" stroke-width="1.5"></path>
                        </g>
                    </g>
                </g>
            </g>
        </g>
    </g>
</svg>