<?xml version="1.0" encoding="UTF-8"?>
<svg width="36px" height="36px" viewBox="0 0 36 36" version="1.1" xmlns="http://www.w3.org/2000/svg" xmlns:xlink="http://www.w3.org/1999/xlink">
    <title>bonus-icon2</title>
    <g id="页面-1" stroke="none" stroke-width="1" fill="none" fill-rule="evenodd">
        <g id="首页-w4b" transform="translate(-967, -2269)">
            <g id="sec3" transform="translate(323, 1966)">
                <g id="bonus-text" transform="translate(620, 69)">
                    <g id="编组-51备份" transform="translate(0, 212)">
                        <g id="编组-53" transform="translate(24, 22)">
                            <circle id="椭圆形" fill="#1E202B" cx="18" cy="18" r="18"></circle>
                            <path d="M27,7 C28.1045695,7 29,7.8954305 29,9 L29,27 C29,28.1045695 28.1045695,29 27,29 L9,29 C7.8954305,29 7,28.1045695 7,27 L7,9 C7,7.8954305 7.8954305,7 9,7 L11.5,7 L10.5,9 L10,9 C9.48716416,9 9.06449284,9.38604019 9.00672773,9.88337887 L9,10 L9,18 C9,18.5522847 9.44771525,19 10,19 L26,19 C26.5522847,19 27,18.5522847 27,18 L27,10 C27,9.44771525 26.5522847,9 26,9 L25.5,9 L24.5,7 L27,7 Z" id="矩形-3" fill="#FFDA91"></path>
                            <rect id="矩形" fill="#EB5175" x="9" y="24" width="18" height="3"></rect>
                            <circle id="椭圆形" fill="#FFDA91" cx="18" cy="11" r="7"></circle>
                            <circle id="椭圆形备份-2" stroke="#1E202B" fill="#FFDA91" cx="18" cy="11" r="4.5"></circle>
                        </g>
                    </g>
                </g>
            </g>
        </g>
    </g>
</svg>