<?xml version="1.0" encoding="UTF-8"?>
<svg width="36px" height="36px" viewBox="0 0 36 36" version="1.1" xmlns="http://www.w3.org/2000/svg" xmlns:xlink="http://www.w3.org/1999/xlink">
    <title>bonus-icon1</title>
    <g id="页面-1" stroke="none" stroke-width="1" fill="none" fill-rule="evenodd">
        <g id="首页-w4b" transform="translate(-967, -2176)">
            <g id="sec3" transform="translate(323, 1966)">
                <g id="bonus-text" transform="translate(620, 69)">
                    <g id="编组-51" transform="translate(0, 119)">
                        <g id="bonus-icon1" transform="translate(24, 22)">
                            <circle id="椭圆形" fill="#1E202B" cx="18" cy="18" r="18"></circle>
                            <path d="M17.0332031,8.91914063 C16.8574219,8.95078125 18.0316406,8.9015625 17.7398437,8.88398438 C17.6835937,8.88046875 17.6273437,8.88046875 17.5710937,8.88046875 C17.578125,8.88046875 17.5886719,8.88046875 17.5957031,8.87695313 C17.7539062,8.87695313 17.8488281,8.87695313 17.9050781,8.88046875 C18.7523437,8.90507813 19.6101562,9 20.446875,8.87695313 C21.3292969,8.746875 22.0113281,8.1984375 22.4789062,7.35820313 C22.7707031,6.83789063 23.3542969,5.82539063 22.8867187,5.26640625 C22.6652344,5.00273438 22.3207031,4.89023438 22.021875,4.79179688 C21.5402344,4.640625 21.0445312,4.51757813 20.5488281,4.42617188 C18.4429687,4.01484375 16.2808594,4.11679688 14.2136719,4.70742188 C13.6546875,4.86914063 12.8988281,5.09765625 12.9164062,5.8921875 C12.9269531,6.64804688 13.4648437,7.47773438 13.9324219,7.9734375 C14.7972656,8.90507813 15.91875,8.98242188 17.0332031,8.91914063 Z" id="路径" fill="#EB5175" fill-rule="nonzero"></path>
                            <path d="M22.4929687,10.5890625 C18.1054687,8.62734375 13.1273437,9.9984375 9.74882812,13.3242188 C8.07890625,14.9695313 6.81328125,17.0683594 6.24726562,19.3816406 C5.73398437,21.4839844 5.596875,23.8183594 6.33164062,25.8890625 C6.99257812,27.7558594 8.37070312,29.1867188 10.0863281,30.0726563 C11.0707031,30.5824219 12.1394531,30.9199219 13.2222656,31.1378906 C14.7480469,31.4472656 16.3265625,31.3277344 17.8664062,31.2820313 L18.0949219,31.2855469 C20.2078125,31.4296875 22.4578125,31.3066406 24.4617187,30.6210938 C25.6148437,30.2273438 26.6941406,29.6050781 27.6117187,28.7859375 C29.4820312,27.1089844 30.2941406,24.8273438 30.2730469,22.3171875 C30.2273437,17.2652344 26.9683594,12.5894531 22.4929687,10.5890625 L22.4929687,10.5890625 Z" id="路径-10" fill="#FFDA91" fill-rule="nonzero"></path>
                            <path d="M19.0449225,25.0428383 L19.0449225,26.6842584 L17.4883035,26.6842584 L17.4883035,25.1737939 C16.4373408,25.123456 15.4161348,24.8213516 14.8212272,24.4890637 L15.2872331,22.6261762 C15.9416541,22.9887633 16.8735898,23.3310802 17.8948338,23.3310802 C18.8069253,23.3310802 19.4118404,22.9684931 19.4118404,22.3442647 C19.4118404,21.7400751 18.9062032,21.3574493 17.7362513,20.9546305 C16.0606622,20.380605 14.9105165,19.5850929 14.9105165,18.0343967 C14.9105165,16.6145598 15.8821406,15.5169431 17.5577676,15.1947228 L17.5577676,13.6842584 L19.0946184,13.6842584 L19.0946184,15.0839602 C20.125794,15.1141629 20.8396146,15.3558426 21.3849402,15.6075513 L20.9189344,17.4100141 C20.5223357,17.2186722 19.7886139,16.8461719 18.6583883,16.8461719 C17.6372013,16.8461719 17.3099338,17.3093769 17.3099338,17.7524274 C17.3099338,18.2659703 17.8552024,18.6184319 19.2136265,19.1017913 C21.0775928,19.7764926 21.8212272,20.6525453 21.8212272,22.102585 C21.8212272,23.522422 20.8496032,24.7409653 19.0451314,25.0429926 L19.0449225,25.0428383 Z" id="路径" fill="#1E202B" fill-rule="nonzero"></path>
                        </g>
                    </g>
                </g>
            </g>
        </g>
    </g>
</svg>