<?xml version="1.0" encoding="UTF-8"?>
<svg width="36px" height="36px" viewBox="0 0 36 36" version="1.1" xmlns="http://www.w3.org/2000/svg" xmlns:xlink="http://www.w3.org/1999/xlink">
    <title>bonus-icon3</title>
    <g id="页面-1" stroke="none" stroke-width="1" fill="none" fill-rule="evenodd">
        <g id="首页-w4b" transform="translate(-967, -2362)">
            <g id="sec3" transform="translate(323, 1966)">
                <g id="bonus-text" transform="translate(620, 69)">
                    <g id="编组-51备份-2" transform="translate(0, 305)">
                        <g id="编组-53" transform="translate(24, 22)">
                            <circle id="椭圆形" fill="#1E202B" cx="18" cy="18" r="18"></circle>
                            <path d="M7.26316163,12.75 C6.56560993,12.75 6,13.322157 6,14.0277831 L6,15.2222408 C6,15.9278908 6.56558629,16.5 7.26316163,16.5 L16.105293,16.5 C16.8028211,16.5 17.3684783,15.9278908 17.3684783,15.2222169 L17.3684783,14.0277592 C17.3684783,13.3221331 16.8027974,12.75 16.1052694,12.75 L7.26316163,12.75 Z" id="路径" fill="#FFDA91" fill-rule="nonzero"></path>
                            <path d="M7.26313799,19.5997421 L7.26313799,28.5997421 C7.26313799,29.7043116 8.15856849,30.5997421 9.26313799,30.5997421 L26.2229742,30.5997421 C27.324694,30.5997421 28.2189396,29.7087545 28.2229609,28.6070421 L28.2558113,19.6070421 C28.259843,18.50248 27.3676868,17.6037871 26.2631246,17.5997554 C26.2606913,17.5997465 26.2582579,17.5997421 26.2558246,17.5997421 L9.26313799,17.5997421 C8.15856849,17.5997421 7.26313799,18.4951726 7.26313799,19.5997421 Z" id="路径" fill="#FFDA91" fill-rule="nonzero"></path>
                            <path d="M19.8947543,12.7500239 C19.1971789,12.7500239 18.6315454,13.322157 18.6315454,14.0277831 L18.6315454,15.2222408 C18.6315454,15.9278908 19.1971789,16.5 19.8947543,16.5 L28.7368384,16.5 C29.4344137,16.5 30,15.9278908 30,15.2222169 L30,14.0277592 C30,13.3221331 29.4343901,12.7500239 28.7368147,12.7500239 L19.8947543,12.7500239 Z" id="路径" fill="#FFDA91" fill-rule="nonzero"></path>
                            <path d="M12.8392479,22.3873096 C18.4829737,22.3873096 21.3048366,22.3873096 21.3048366,22.3873096 C21.3048366,22.3873096 18.938119,19.8858546 18.938119,19.8858546" id="路径-11" stroke="#1E202B" stroke-width="1.7"></path>
                            <path d="M14.3736593,27.8858546 C20.0173851,27.8858546 22.8392479,27.8858546 22.8392479,27.8858546 C22.8392479,27.8858546 20.4725304,25.3843995 20.4725304,25.3843995" id="路径-11备份" stroke="#1E202B" stroke-width="1.7" transform="translate(18.6065, 26.6351) scale(-1, -1) translate(-18.6065, -26.6351)"></path>
                            <path d="M12.1164745,6.00053975 C15.431119,6.10045789 17.7465805,8.89703915 17.7465805,9.59150855 C17.7465805,10.285347 16.041993,12.0000022 14.0009178,12.0000022 C9.24011449,12.0000022 8.11471944,9.213379 9.63092339,7.18301711 C10.050984,6.62089305 11.4025888,5.97879392 12.1164745,6.00053975 Z M12.1164979,7.85711067 C11.8327915,7.85711067 11.4200871,7.93377753 11.1125213,8.12052773 C10.9922281,8.1935683 10.8651554,8.28202981 10.8534168,8.43359367 C10.8187398,8.88207223 11.0412926,9.23726622 11.4011788,9.49062384 C11.8903521,9.83499876 12.6064106,10.0087401 13.4107442,10.0087401 C14.03846,10.0087401 14.5368912,9.91345409 14.9010649,9.76697308 C15.118583,9.6794811 15.3587234,9.60510922 15.3805123,9.47753633 C15.386752,9.44111732 15.1786439,9.23986945 15.0087678,9.03464306 C14.8278646,8.81609499 14.579666,8.5845111 14.2497022,8.38583359 C13.7413537,8.0797472 13.045323,7.85711067 12.1164979,7.85711067 Z M23.2200079,6.00053975 C23.9143846,5.97874885 25.2287474,6.62087052 25.6365886,7.18299457 C27.1107374,9.21340154 26.0164632,11.9999775 21.38797,11.9999775 C19.4036224,11.9999775 17.7465805,10.2853019 17.7465805,9.59146348 C17.7465805,8.89706169 19.9980015,6.10050296 23.2200079,6.00053975 Z M23.2200312,7.8570656 C22.3239219,7.8570656 21.6521925,8.0779614 21.1616377,8.38178677 C20.842202,8.57962937 20.6019888,8.81035657 20.4268074,9.02799116 C20.2561384,9.24001989 20.0580055,9.44515323 20.0639744,9.48164067 C20.0846787,9.60587273 20.3145516,9.68220194 20.5248702,9.76920117 C20.8760784,9.91448001 21.3568754,10.0086951 21.9623027,10.0086951 C22.7373364,10.0086951 23.4280442,9.83672065 23.8997472,9.49514557 C24.2517015,9.24028427 24.4655466,8.88177939 24.4317696,8.4321658 C24.4203043,8.28126845 24.2991143,8.19015427 24.1811267,8.11648574 C23.8866927,7.93264841 23.4917063,7.8570656 23.2200312,7.8570656 Z" id="形状结合" fill="#EB5175" fill-rule="nonzero"></path>
                        </g>
                    </g>
                </g>
            </g>
        </g>
    </g>
</svg>